# xmcd
#
# Track frame offsets:
#	150
#	25762
#	44687
#	69700
#	86935
#	93487
#	113247
#	128227
#	135417
#	153490
#	207470
#
# Disc length: 3044 seconds
#
# Revision: 1
# Processed by: cddbd v1.5PL3 Copyright (c) Steve Scherf et al.
# Submitted via: CDex 1.50Beta5
#
DISCID=9f0be20b
DTITLE=パール兄弟 - 宇宙旅行
DYEAR=2003
DGENRE=Pop
TTITLE0=ローラー・コースター
TTITLE1=ファイト倶楽部
TTITLE2=水
TTITLE3=宇宙旅行
TTITLE4=Do The Strange
TTITLE5=恋の工事現場
TTITLE6=マイクロ・ホリデイ
TTITLE7=Do The Strange（キクチ）
TTITLE8=ロリータ・ゴーズ To ザ・カントリー
TTITLE9=Niagara Ondo Medley
TTITLE10=ザ・ミッドナイト・アワー
EXTD=
EXTT0=
EXTT1=
EXTT2=
EXTT3=
EXTT4=
EXTT5=
EXTT6=
EXTT7=
EXTT8=
EXTT9=
EXTT10=
PLAYORDER=
